Coordinates
version=1
nRows=23
nColumns=38
inDegrees=no

Units are S.I. units (second, meters, Newtons, ...)
If the header above contains a line with 'inDegrees', this indicates whether rotational values are in degrees (yes) or radians (no).

endheader
time	pelvis_tilt	pelvis_list	pelvis_rotation	pelvis_tx	pelvis_ty	pelvis_tz	hip_flexion_r	hip_adduction_r	hip_rotation_r	knee_angle_r	ankle_angle_r	subtalar_angle_r	mtp_angle_r	hip_flexion_l	hip_adduction_l	hip_rotation_l	knee_angle_l	ankle_angle_l	subtalar_angle_l	mtp_angle_l	lumbar_extension	lumbar_bending	lumbar_rotation	arm_flex_r	arm_add_r	arm_rot_r	elbow_flex_r	pro_sup_r	wrist_flex_r	wrist_dev_r	arm_flex_l	arm_add_l	arm_rot_l	elbow_flex_l	pro_sup_l	wrist_flex_l	wrist_dev_l
1.86	1.56898	1.45169	-0.205143	0.521629	1.26354	0.950762	-0.00906206	0.178754	0.0734143	0.205615	0.0437977	0	0	0.584383	-0.31656	-0.213282	0.973124	0.0251793	0	0	-0.140866	0.121663	0.0188531	-0.252356	-0.0671903	-0.378576	0.51726	0.970213	0	0	-0.222273	-0.323097	0.466836	0.694862	0.774045	0	0
1.87	1.55523	1.45319	-0.193866	0.522002	1.27158	0.950177	-0.0174235	0.176007	0.0769538	0.204708	0.0514986	0	0	0.581949	-0.318992	-0.236495	0.920788	0.0320526	0	0	-0.141158	0.119004	0.0197561	-0.246864	-0.065331	-0.375532	0.513914	0.970413	0	0	-0.222027	-0.321751	0.47114	0.692233	0.771567	0	0
1.88	1.53599	1.45467	-0.176306	0.522262	1.27977	0.949434	-0.0250394	0.173229	0.0800226	0.204263	0.0591283	0	0	0.579136	-0.320352	-0.260393	0.867157	0.0394533	0	0	-0.140511	0.116613	0.020551	-0.241827	-0.0634032	-0.372417	0.508821	0.969536	0	0	-0.221241	-0.32064	0.477189	0.688516	0.770136	0	0
1.89	1.51007	1.456	-0.151182	0.522386	1.28812	0.948511	-0.0317286	0.170503	0.0822766	0.204312	0.0672185	0	0	0.576426	-0.32058	-0.284346	0.812774	0.0474429	0	0	-0.138682	0.114599	0.0207413	-0.237322	-0.0617492	-0.369709	0.503927	0.967979	0	0	-0.220527	-0.319577	0.483507	0.684471	0.768693	0	0
1.9	1.47967	1.45721	-0.120652	0.522353	1.29664	0.947419	-0.0379913	0.167702	0.08352	0.204413	0.0757055	0	0	0.573819	-0.319498	-0.308227	0.758303	0.0551741	0	0	-0.136009	0.11289	0.0200752	-0.23419	-0.06024	-0.36794	0.501784	0.96638	0	0	-0.220089	-0.318201	0.488945	0.680989	0.766205	0	0
1.91	1.44693	1.45862	-0.0871565	0.522158	1.30533	0.946209	-0.0440597	0.164417	0.0839098	0.204626	0.0846823	0	0	0.571029	-0.316764	-0.332196	0.704014	0.0626675	0	0	-0.132842	0.111132	0.0190884	-0.232471	-0.0589369	-0.365675	0.500952	0.964587	0	0	-0.219657	-0.316425	0.492805	0.677684	0.763267	0	0
1.92	1.40783	1.45955	-0.0465699	0.521817	1.31415	0.944846	-0.0490675	0.161477	0.0834383	0.205805	0.0939986	0	0	0.569119	-0.313076	-0.355347	0.650812	0.0700352	0	0	-0.128688	0.109991	0.0174548	-0.231907	-0.0578201	-0.36338	0.501103	0.962066	0	0	-0.219498	-0.314122	0.495543	0.674024	0.761814	0	0
1.93	1.36856	1.46118	-0.00520178	0.521333	1.32315	0.943444	-0.054118	0.157469	0.0823207	0.207405	0.103752	0	0	0.566383	-0.306789	-0.377315	0.597475	0.0769359	0	0	-0.124243	0.107916	0.0153945	-0.230245	-0.0560482	-0.36564	0.497968	0.969325	0	0	-0.218736	-0.312229	0.501954	0.668655	0.758294	0	0
1.94	1.3276	1.4633	0.0388942	0.520644	1.33228	0.941999	-0.0589091	0.152489	0.0794751	0.209597	0.113985	0	0	0.563311	-0.297407	-0.394454	0.544529	0.0840296	0	0	-0.119312	0.105128	0.0121489	-0.22896	-0.0553887	-0.360653	0.494394	0.962599	0	0	-0.217435	-0.311335	0.514866	0.662313	0.747873	0	0
1.95	1.28374	1.46655	0.0871113	0.519688	1.3415	0.94054	-0.0627201	0.145679	0.0737051	0.213664	0.125501	0	0	0.559053	-0.283225	-0.404131	0.489831	0.0907076	0	0	-0.114192	0.101046	0.00728624	-0.227512	-0.0547139	-0.355796	0.491105	0.956779	0	0	-0.216005	-0.309221	0.524268	0.653635	0.74557	0	0
1.96	1.23346	1.46985	0.141963	0.518628	1.35082	0.938998	-0.0656536	0.138421	0.0677582	0.218894	0.13698	0	0	0.554943	-0.267114	-0.406407	0.436367	0.0978987	0	0	-0.108641	0.0966743	0.00221907	-0.226649	-0.0539087	-0.352232	0.489316	0.952551	0	0	-0.214765	-0.307016	0.532708	0.644624	0.744301	0	0
1.97	1.176	1.47372	0.203994	0.517506	1.36027	0.937422	-0.0675036	0.130014	0.0609003	0.226139	0.148965	0	0	0.549467	-0.248233	-0.398642	0.382008	0.103923	0	0	-0.102559	0.0911578	-0.00286203	-0.226234	-0.0527702	-0.348863	0.488127	0.947723	0	0	-0.21401	-0.304522	0.53865	0.635366	0.742734	0	0
1.98	1.11382	1.47785	0.270155	0.516365	1.36983	0.935834	-0.06875	0.121014	0.054334	0.235172	0.161109	0	0	0.542099	-0.227922	-0.380472	0.327642	0.107756	0	0	-0.0965807	0.0848694	-0.0072757	-0.226319	-0.0512568	-0.345651	0.488105	0.941682	0	0	-0.213489	-0.301739	0.542596	0.6258	0.741669	0	0
1.99	1.04945	1.48113	0.337321	0.51531	1.3795	0.934168	-0.0697671	0.112719	0.0496381	0.24537	0.172934	0	0	0.535075	-0.209931	-0.357582	0.279555	0.111179	0	0	-0.090627	0.0790405	-0.0103193	-0.227324	-0.0498397	-0.34198	0.490134	0.935182	0	0	-0.213288	-0.298868	0.545416	0.617199	0.741409	0	0
2	0.991915	1.48242	0.396229	0.514459	1.38926	0.932386	-0.0709567	0.106867	0.0477868	0.256255	0.183511	0	0	0.532642	-0.198778	-0.338009	0.249088	0.119173	0	0	-0.084941	0.0750514	-0.0115738	-0.229374	-0.0487784	-0.337563	0.493355	0.928951	0	0	-0.2138	-0.296281	0.547429	0.609819	0.743351	0	0
2.01	0.95119	1.48465	0.437615	0.513659	1.39918	0.930727	-0.0734376	0.100336	0.0447814	0.269333	0.194732	0	0	0.530981	-0.189887	-0.319571	0.23208	0.127197	0	0	-0.0815285	0.0704868	-0.0108941	-0.230355	-0.044928	-0.349605	0.494472	0.954799	0	0	-0.212881	-0.296594	0.560182	0.605654	0.722904	0	0
2.02	0.9276	1.4857	0.461312	0.513024	1.4093	0.929057	-0.0780795	0.0960491	0.0446057	0.280702	0.203624	0	0	0.537562	-0.188262	-0.312398	0.24159	0.136734	0	0	-0.0790035	0.0676142	-0.0095369	-0.233535	-0.0429036	-0.348988	0.498812	0.955838	0	0	-0.21355	-0.295635	0.563527	0.601277	0.720388	0	0
2.03	0.919113	1.48698	0.469638	0.512472	1.41964	0.927467	-0.0843237	0.0922136	0.0449102	0.292377	0.211646	0	0	0.548545	-0.190411	-0.311549	0.268715	0.140323	0	0	-0.077639	0.0650263	-0.00724265	-0.238271	-0.0407378	-0.347811	0.505182	0.955582	0	0	-0.214559	-0.295162	0.566421	0.598068	0.716925	0	0
2.04	0.926967	1.4886	0.460599	0.512	1.43015	0.926062	-0.0923225	0.0886423	0.0464522	0.303906	0.218387	0	0	0.560725	-0.195317	-0.314425	0.306423	0.136508	0	0	-0.077657	0.0626143	-0.00356328	-0.24347	-0.0386313	-0.347079	0.512515	0.954256	0	0	-0.215751	-0.295079	0.570654	0.595762	0.713467	0	0
2.05	0.943754	1.49066	0.441216	0.511593	1.44083	0.924897	-0.100759	0.0846986	0.049653	0.316301	0.223865	0	0	0.571404	-0.201042	-0.318585	0.347504	0.126366	0	0	-0.0784482	0.0600427	0.00203429	-0.249015	-0.0367147	-0.346449	0.519095	0.952273	0	0	-0.216998	-0.294977	0.574489	0.594132	0.709002	0	0
2.06	0.959861	1.49293	0.420742	0.511232	1.4517	0.923944	-0.10842	0.0800812	0.0543891	0.330185	0.227992	0	0	0.579848	-0.206887	-0.324366	0.388568	0.113198	0	0	-0.0788994	0.057218	0.00998749	-0.255178	-0.0352687	-0.346049	0.524963	0.950046	0	0	-0.218286	-0.29472	0.578142	0.592763	0.702906	0	0
2.07	0.972138	1.49496	0.40208	0.51093	1.46282	0.923166	-0.114541	0.0749971	0.0603496	0.346241	0.230239	0	0	0.58498	-0.212823	-0.331579	0.426073	0.102425	0	0	-0.0782988	0.0545994	0.0203776	-0.262251	-0.0344936	-0.346211	0.530389	0.947564	0	0	-0.220004	-0.294262	0.582083	0.590953	0.696428	0	0
2.08	0.97964	1.4966	0.386813	0.510603	1.47418	0.922544	-0.118832	0.0694448	0.0666119	0.364724	0.230686	0	0	0.586403	-0.218157	-0.339104	0.458139	0.0976736	0	0	-0.0763578	0.0524987	0.0322446	-0.270031	-0.0343257	-0.34675	0.534707	0.944541	0	0	-0.222486	-0.293407	0.585908	0.588644	0.690951	0	0
